<svg xmlns="http://www.w3.org/2000/svg" xmlns:xlink="http://www.w3.org/1999/xlink" viewBox="0 0 256 256" width="256" height="256">
  <title>Default avatar 01-topknot (Senryo original)</title>
  <defs><radialGradient id="avatar-01-topknot-r1" cx="0.25" cy="0.18" r="0.85"><stop offset="0" stop-color="#FFFFFF" stop-opacity="0.3"/><stop offset="0.6" stop-color="#FFFFFF" stop-opacity="0.05"/><stop offset="1" stop-color="#FFFFFF" stop-opacity="0"/></radialGradient><linearGradient id="avatar-01-topknot-l2" x1="0" y1="0.4" x2="0.6" y2="1"><stop offset="0" stop-color="#000000" stop-opacity="0"/><stop offset="1" stop-color="#000000" stop-opacity="0.16"/></linearGradient><linearGradient id="avatar-01-topknot-l3" x1="0" y1="0" x2="1" y2="1"><stop offset="0" stop-color="#373737"/><stop offset="0.6" stop-color="#111111"/><stop offset="1" stop-color="#0C0C0C"/></linearGradient><clipPath id="avatar-01-topknot-c4"><path d="M78 106C78 72 100 54 128 54C156 54 178 72 178 106V134C178 158 160 171 128 171C96 171 78 158 78 134Z"/></clipPath></defs>
  <g id="avatar-01-topknot-ground"><rect width="256" height="256" fill="#7690ED"/><rect width="256" height="256" fill="url(#avatar-01-topknot-r1)"/><rect width="256" height="256" fill="url(#avatar-01-topknot-l2)"/></g>
  <g id="avatar-01-topknot-figure"><g transform="translate(128 136) scale(1.25) translate(-128 -112)"><g id="avatar-01-topknot-back"></g><g id="avatar-01-topknot-body"><path d="M20 256C24 222 52 204 94 195L128 216L162 195C204 204 232 222 236 256Z" fill="url(#avatar-01-topknot-l3)"/><path d="M104 184L128 224L152 184Z" fill="#BD8048"/><path d="M104 184L128 222L152 184L160 190L128 240L96 190Z" fill="#FFFFFF"/><path d="M105 188L91.5 196.6L118.5 239.3L128 224.4Z" fill="#C7C7C7"/><path d="M151 188L164.5 196.6L121.5 264.6L108 256Z" fill="#000000" fill-opacity=".22" transform="translate(-3 2)"/><path d="M151 188L164.5 196.6L121.5 264.6L108 256Z" fill="#E2E2E2"/><path d="M151 188L108 256" stroke="#000000" stroke-opacity=".18" stroke-width="1.6"/></g><g id="avatar-01-topknot-head"><path d="M107 150V196Q128 212 149 196V150Z" fill="#BD8048"/><path d="M107 180Q128 194 149 178V196Q128 212 107 196Z" fill="#DDA36B" fill-opacity=".55"/><ellipse cx="77" cy="124" rx="9" ry="13" fill="#DDA36B"/><ellipse cx="179" cy="124" rx="9" ry="13" fill="#BD8048"/><path d="M75 119Q79 124 76 130" fill="none" stroke="#BD8048" stroke-width="2.4" stroke-linecap="round"/><path d="M78 106C78 72 100 54 128 54C156 54 178 72 178 106V134C178 158 160 171 128 171C96 171 78 158 78 134Z" fill="#BD8048"/><g clip-path="url(#avatar-01-topknot-c4)"><ellipse cx="118" cy="106" rx="60" ry="76" fill="#DDA36B"/></g><path d="M128 124Q123 136 131 138" fill="none" stroke="#BD8048" stroke-width="3" stroke-linecap="round"/><ellipse cx="106" cy="118" rx="8.6" ry="5" fill="#191919" transform="rotate(9 106 118)"/><circle cx="103.6" cy="116.4" r="1.6" fill="#FFFFFF"/><ellipse cx="150" cy="118" rx="8.6" ry="5" fill="#191919" transform="rotate(-9 150 118)"/><circle cx="147.6" cy="116.4" r="1.6" fill="#FFFFFF"/><path d="M96 99L115 104M141 104L160 99" fill="none" stroke="#191919" stroke-width="5.2" stroke-linecap="round"/><path d="M118 150Q130 156 141 145" fill="none" stroke="#191919" stroke-width="3.8" stroke-linecap="round"/></g><g id="avatar-01-topknot-hair"><ellipse cx="128" cy="30" rx="17" ry="14" fill="#191919"/><path d="M116 40H140V50H116Z" fill="#666666"/><path d="M116 40H140V43.5H116Z" fill="#B8B8B8"/><path d="M75 106C72 68 98 44 128 44C158 44 184 68 181 106C176 90 158 80 128 80C98 80 80 90 75 106Z" fill="#191919"/><path d="M75 104C74 112 75 120 78 126L82 100ZM181 104C182 112 181 120 178 126L174 100Z" fill="#191919"/><path d="M92 76C100 62 114 54 130 53" fill="none" stroke="#505050" stroke-opacity="0.5" stroke-width="5" stroke-linecap="round"/><path d="M121 26C125 22 131 21 136 23" fill="none" stroke="#505050" stroke-opacity="0.5" stroke-width="3.4" stroke-linecap="round"/></g></g></g>
</svg>
