<svg xmlns="http://www.w3.org/2000/svg" xmlns:xlink="http://www.w3.org/1999/xlink" viewBox="0 0 256 256" width="256" height="256">
  <title>Default avatar 08-sweep (Senryo original)</title>
  <defs><radialGradient id="avatar-08-sweep-r1" cx="0.25" cy="0.18" r="0.85"><stop offset="0" stop-color="#FFFFFF" stop-opacity="0.3"/><stop offset="0.6" stop-color="#FFFFFF" stop-opacity="0.05"/><stop offset="1" stop-color="#FFFFFF" stop-opacity="0"/></radialGradient><linearGradient id="avatar-08-sweep-l2" x1="0" y1="0.4" x2="0.6" y2="1"><stop offset="0" stop-color="#000000" stop-opacity="0"/><stop offset="1" stop-color="#000000" stop-opacity="0.16"/></linearGradient><linearGradient id="avatar-08-sweep-l3" x1="0" y1="0" x2="1" y2="1"><stop offset="0" stop-color="#3C383F"/><stop offset="0.6" stop-color="#17121B"/><stop offset="1" stop-color="#100D13"/></linearGradient><clipPath id="avatar-08-sweep-c4"><path d="M78 106C78 72 100 54 128 54C156 54 178 72 178 106V126C178 158 154 183 128 183C102 183 78 158 78 126Z"/></clipPath></defs>
  <g id="avatar-08-sweep-ground"><rect width="256" height="256" fill="#8B95FF"/><rect width="256" height="256" fill="url(#avatar-08-sweep-r1)"/><rect width="256" height="256" fill="url(#avatar-08-sweep-l2)"/></g>
  <g id="avatar-08-sweep-figure"><g transform="translate(128 120) scale(1.33) translate(-128 -112)"><g id="avatar-08-sweep-back"></g><g id="avatar-08-sweep-body"><path d="M20 256C24 222 52 204 94 195L128 216L162 195C204 204 232 222 236 256Z" fill="url(#avatar-08-sweep-l3)"/><path d="M104 184L128 224L152 184Z" fill="#935C33"/><path d="M104 184L128 222L152 184L160 190L128 240L96 190Z" fill="#FFFFFF"/><path d="M105 188L91.5 196.6L118.5 239.3L128 224.4Z" fill="#7A83E0"/><path d="M151 188L164.5 196.6L121.5 264.6L108 256Z" fill="#000000" fill-opacity=".22" transform="translate(-3 2)"/><path d="M151 188L164.5 196.6L121.5 264.6L108 256Z" fill="#8B95FF"/><path d="M151 188L108 256" stroke="#000000" stroke-opacity=".18" stroke-width="1.6"/></g><g id="avatar-08-sweep-head"><path d="M107 150V196Q128 212 149 196V150Z" fill="#935C33"/><path d="M107 180Q128 194 149 178V196Q128 212 107 196Z" fill="#B47A4A" fill-opacity=".55"/><ellipse cx="77" cy="124" rx="9" ry="13" fill="#B47A4A"/><ellipse cx="179" cy="124" rx="9" ry="13" fill="#935C33"/><path d="M75 119Q79 124 76 130" fill="none" stroke="#935C33" stroke-width="2.4" stroke-linecap="round"/><path d="M78 106C78 72 100 54 128 54C156 54 178 72 178 106V126C178 158 154 183 128 183C102 183 78 158 78 126Z" fill="#935C33"/><g clip-path="url(#avatar-08-sweep-c4)"><ellipse cx="118" cy="106" rx="60" ry="76" fill="#B47A4A"/></g><path d="M128 124Q123 136 131 138" fill="none" stroke="#935C33" stroke-width="3" stroke-linecap="round"/><ellipse cx="107" cy="118" rx="8.6" ry="5" fill="#1C1722" transform="rotate(9 107 118)"/><circle cx="104.6" cy="116.4" r="1.6" fill="#FFFFFF"/><ellipse cx="149" cy="118" rx="8.6" ry="5" fill="#1C1722" transform="rotate(-9 149 118)"/><circle cx="146.6" cy="116.4" r="1.6" fill="#FFFFFF"/><path d="M98 102H116M140 102H158" fill="none" stroke="#1C1722" stroke-width="4" stroke-linecap="round"/><path d="M119 150H137" fill="none" stroke="#1C1722" stroke-width="3.8" stroke-linecap="round"/></g><g id="avatar-08-sweep-hair"><path d="M75 108C76 96 78 88 82 82L84 110ZM181 108C180 96 178 88 174 82L172 110Z" fill="#C9D0DD" fill-opacity=".55"/><path d="M80 92C70 60 96 30 138 34C172 36 192 60 182 92C178 78 166 70 150 72C126 74 102 80 80 92Z" fill="#C9D0DD"/><path d="M94 70C104 52 124 44 148 46" fill="none" stroke="#F4F6FB" stroke-opacity="0.5" stroke-width="6" stroke-linecap="round"/><path d="M110 76C124 66 144 62 162 66" fill="none" stroke="#F4F6FB" stroke-opacity="0.4" stroke-width="3.4" stroke-linecap="round"/><circle cx="75" cy="141" r="8.5" fill="none" stroke="#F4F6FB" stroke-width="4"/></g></g></g>
</svg>
