<svg xmlns="http://www.w3.org/2000/svg" xmlns:xlink="http://www.w3.org/1999/xlink" viewBox="0 0 256 256" width="256" height="256">
  <title>Default avatar 10-scarf (Senryo original)</title>
  <defs><radialGradient id="avatar-10-scarf-r1" cx="0.25" cy="0.18" r="0.85"><stop offset="0" stop-color="#FFFFFF" stop-opacity="0.3"/><stop offset="0.6" stop-color="#FFFFFF" stop-opacity="0.05"/><stop offset="1" stop-color="#FFFFFF" stop-opacity="0"/></radialGradient><linearGradient id="avatar-10-scarf-l2" x1="0" y1="0.4" x2="0.6" y2="1"><stop offset="0" stop-color="#000000" stop-opacity="0"/><stop offset="1" stop-color="#000000" stop-opacity="0.16"/></linearGradient><linearGradient id="avatar-10-scarf-l3" x1="0" y1="0" x2="1" y2="1"><stop offset="0" stop-color="#5F6AF6"/><stop offset="0.6" stop-color="#414EF4"/><stop offset="1" stop-color="#2E37AB"/></linearGradient><clipPath id="avatar-10-scarf-c4"><path d="M78 106C78 72 100 54 128 54C156 54 178 72 178 106V124C178 153 156 172 128 172C100 172 78 153 78 124Z"/></clipPath></defs>
  <g id="avatar-10-scarf-ground"><rect width="256" height="256" fill="#F18BB7"/><rect width="256" height="256" fill="url(#avatar-10-scarf-r1)"/><rect width="256" height="256" fill="url(#avatar-10-scarf-l2)"/></g>
  <g id="avatar-10-scarf-figure"><g transform="translate(128 122) scale(1.3) translate(-128 -112)"><g id="avatar-10-scarf-back"><path d="M60 128C56 68 92 34 128 34C164 34 200 68 196 128C196 170 182 200 164 214H92C74 200 60 170 60 128Z" fill="#7690ED"/></g><g id="avatar-10-scarf-body"><path d="M20 256C24 222 52 204 94 195L128 216L162 195C204 204 232 222 236 256Z" fill="url(#avatar-10-scarf-l3)"/><path d="M104 184L128 224L152 184Z" fill="#935C33"/><path d="M104 184L128 222L152 184L160 190L128 240L96 190Z" fill="#FFFFFF"/><path d="M105 188L91.5 196.6L118.5 239.3L128 224.4Z" fill="#B1B7C2"/><path d="M151 188L164.5 196.6L121.5 264.6L108 256Z" fill="#000000" fill-opacity=".22" transform="translate(-3 2)"/><path d="M151 188L164.5 196.6L121.5 264.6L108 256Z" fill="#C9D0DD"/><path d="M151 188L108 256" stroke="#000000" stroke-opacity=".18" stroke-width="1.6"/></g><g id="avatar-10-scarf-head"><path d="M107 150V196Q128 212 149 196V150Z" fill="#935C33"/><path d="M107 180Q128 194 149 178V196Q128 212 107 196Z" fill="#B47A4A" fill-opacity=".55"/><path d="M78 106C78 72 100 54 128 54C156 54 178 72 178 106V124C178 153 156 172 128 172C100 172 78 153 78 124Z" fill="#935C33"/><g clip-path="url(#avatar-10-scarf-c4)"><ellipse cx="118" cy="106" rx="60" ry="76" fill="#B47A4A"/></g><path d="M128 124Q123 136 131 138" fill="none" stroke="#935C33" stroke-width="3" stroke-linecap="round"/><ellipse cx="96" cy="138" rx="10.5" ry="6.6" fill="#F18BB7" fill-opacity=".5"/><ellipse cx="160" cy="138" rx="10.5" ry="6.6" fill="#F18BB7" fill-opacity=".5"/><circle cx="107" cy="118" r="6.4" fill="#1C1722"/><circle cx="105" cy="115.8" r="2" fill="#FFFFFF"/><circle cx="149" cy="118" r="6.4" fill="#1C1722"/><circle cx="147" cy="115.8" r="2" fill="#FFFFFF"/><path d="M99 103Q107 98 115 102M141 102Q149 98 157 103" fill="none" stroke="#1C1722" stroke-width="3.4" stroke-linecap="round"/><path d="M116 147Q128 159 140 147" fill="none" stroke="#1C1722" stroke-width="3.8" stroke-linecap="round"/></g><g id="avatar-10-scarf-hair"><path d="M60 128C56 68 92 34 128 34C164 34 200 68 196 128C196 170 182 200 164 214H92C74 200 60 170 60 128ZM86 112C86 82 104 66 128 66C152 66 170 82 170 112V126C170 150 152 166 128 166C104 166 86 150 86 126Z" fill-rule="evenodd" fill="#7690ED"/><path d="M88 100C92 78 108 68 128 68C148 68 164 78 168 100C156 84 142 78 128 78C114 78 100 84 88 100Z" fill="#A9B8F6"/><path d="M172 96C184 120 182 160 160 196M84 96C72 120 76 164 98 200M96 176C112 190 144 190 160 176" fill="none" stroke="#000000" stroke-opacity=".16" stroke-width="3" stroke-linecap="round"/><path d="M78 86C86 58 106 44 130 43" fill="none" stroke="#A9B8F6" stroke-opacity="0.55" stroke-width="6" stroke-linecap="round"/></g></g></g>
</svg>
