<svg xmlns="http://www.w3.org/2000/svg" xmlns:xlink="http://www.w3.org/1999/xlink" viewBox="0 0 256 256" width="256" height="256">
  <title>EUR/USD flag pair (Senryo original; public-domain flags)</title>
  <defs><clipPath id="fx-eur-usd-b-clip"><circle cx="96" cy="96" r="86"/></clipPath><radialGradient id="fx-eur-usd-b-gloss" cx="0.35" cy="0.3" r="0.75"><stop offset="0" stop-color="#FFFFFF" stop-opacity="0.14"/><stop offset="0.55" stop-color="#FFFFFF" stop-opacity="0"/><stop offset="1" stop-color="#000000" stop-opacity="0.08"/></radialGradient><clipPath id="fx-eur-usd-q-clip"><circle cx="188" cy="188" r="62"/></clipPath><radialGradient id="fx-eur-usd-q-gloss" cx="0.35" cy="0.3" r="0.75"><stop offset="0" stop-color="#FFFFFF" stop-opacity="0.14"/><stop offset="0.55" stop-color="#FFFFFF" stop-opacity="0"/><stop offset="1" stop-color="#000000" stop-opacity="0.08"/></radialGradient><mask id="fx-eur-usd-cut" maskUnits="userSpaceOnUse" x="0" y="0" width="256" height="256"><rect width="256" height="256" fill="#FFFFFF"/><circle cx="188" cy="188" r="70" fill="#000000"/></mask></defs>
  <g mask="url(#fx-eur-usd-cut)"><g clip-path="url(#fx-eur-usd-b-clip)"><g transform="translate(-33.000 10.000) scale(0.286667)"><g transform="translate(-0 -0)">
<rect width="900" height="600" fill="#039"/>
<g fill="#fc0" transform="translate(450,300)">
<path id="fx-eur-usd-b-s" d="M0,162.5 22.041947,230.338137 -35.664619,188.411863H35.664619L-22.041947,230.338137z"/>
<use xlink:href="#fx-eur-usd-b-s" y="-400"/>
<g id="fx-eur-usd-b-s5">
<use xlink:href="#fx-eur-usd-b-s" transform="rotate(30) rotate(-30,0,200)"/>
<use xlink:href="#fx-eur-usd-b-s" transform="rotate(60) rotate(-60,0,200)"/>
<use xlink:href="#fx-eur-usd-b-s" transform="rotate(90) rotate(-90,0,200)"/>
<use xlink:href="#fx-eur-usd-b-s" transform="rotate(120) rotate(-120,0,200)"/>
<use xlink:href="#fx-eur-usd-b-s" transform="rotate(150) rotate(-150,0,200)"/>
</g>
<use xlink:href="#fx-eur-usd-b-s5" transform="scale(-1,1)"/>
</g>
</g></g><circle cx="96" cy="96" r="86" fill="url(#fx-eur-usd-b-gloss)"/></g><circle cx="96" cy="96" r="85" fill="none" stroke="#000000" stroke-opacity=".16" stroke-width="2"/></g><g clip-path="url(#fx-eur-usd-q-clip)"><g transform="translate(125.566 126.000) scale(0.031795)"><g transform="translate(-0 -0)">
<path d="M0,0h7410v3900H0" fill="#b31942"/>
<path d="M0,450H7410m0,600H0m0,600H7410m0,600H0m0,600H7410m0,600H0" stroke="#FFF" stroke-width="300"/>
<path d="M0,0h2964v2100H0" fill="#0a3161"/>
<g fill="#FFF">
<g id="fx-eur-usd-q-s18">
<g id="fx-eur-usd-q-s9">
<g id="fx-eur-usd-q-s5">
<g id="fx-eur-usd-q-s4">
<path id="fx-eur-usd-q-s" d="M247,90 317.534230,307.082039 132.873218,172.917961H361.126782L176.465770,307.082039z"/>
<use xlink:href="#fx-eur-usd-q-s" y="420"/>
<use xlink:href="#fx-eur-usd-q-s" y="840"/>
<use xlink:href="#fx-eur-usd-q-s" y="1260"/>
</g>
<use xlink:href="#fx-eur-usd-q-s" y="1680"/>
</g>
<use xlink:href="#fx-eur-usd-q-s4" x="247" y="210"/>
</g>
<use xlink:href="#fx-eur-usd-q-s9" x="494"/>
</g>
<use xlink:href="#fx-eur-usd-q-s18" x="988"/>
<use xlink:href="#fx-eur-usd-q-s9" x="1976"/>
<use xlink:href="#fx-eur-usd-q-s5" x="2470"/>
</g>
</g></g><circle cx="188" cy="188" r="62" fill="url(#fx-eur-usd-q-gloss)"/></g><circle cx="188" cy="188" r="61" fill="none" stroke="#000000" stroke-opacity=".16" stroke-width="2"/>
</svg>
